<?xml version="1.0" encoding="UTF-8" standalone="no"?>
<!DOCTYPE svg PUBLIC "-//W3C//DTD SVG 1.1//EN"
 "http://www.w3.org/Graphics/SVG/1.1/DTD/svg11.dtd">
<!-- Generated by graphviz version 12.2.1 (20241206.2353)
 -->
<!-- Title: code_structure Pages: 1 -->
<svg width="6720pt" height="996pt"
 viewBox="0.00 0.00 6720.00 996.46" xmlns="http://www.w3.org/2000/svg" xmlns:xlink="http://www.w3.org/1999/xlink">
<g id="graph0" class="graph" transform="scale(1 1) rotate(0) translate(4 992.46)">
<title>code_structure</title>
<polygon fill="white" stroke="none" points="-4,4 -4,-992.46 6716,-992.46 6716,4 -4,4"/>
<g id="clust1" class="cluster">
<title>cluster_n__Users_jamie_Coding_Sourceflow_sourceflow_main_py</title>
<polygon fill="#e8e8e8" stroke="gray" points="8,-224 8,-819.24 474,-819.24 474,-224 8,-224"/>
<text text-anchor="middle" x="241" y="-803.84" font-family="Arial" font-size="12.00">main.py</text>
<text text-anchor="middle" x="241" y="-789.59" font-family="Arial" font-size="12.00">This module serves as the main entry point for the Code Project Analyzer application.</text>
</g>
<g id="clust2" class="cluster">
<title>cluster_n__Users_jamie_Coding_Sourceflow_sourceflow_core_visualizer_py</title>
<polygon fill="#e8e8e8" stroke="gray" points="482,-116 482,-980.46 2891,-980.46 2891,-116 482,-116"/>
<text text-anchor="middle" x="1686.5" y="-965.06" font-family="Arial" font-size="12.00">visualizer.py</text>
<text text-anchor="middle" x="1686.5" y="-950.81" font-family="Arial" font-size="12.00">This module is responsible for generating visual representations of code structure, dependencies, and execution flows based on the analysis results from the relationship builder.</text>
</g>
<g id="clust3" class="cluster">
<title>cluster_n__Users_jamie_Coding_Sourceflow_sourceflow_core_analyzer_py</title>
<polygon fill="#e8e8e8" stroke="gray" points="2934,-529.81 2934,-782.65 4481,-782.65 4481,-529.81 2934,-529.81"/>
<text text-anchor="middle" x="3707.5" y="-767.25" font-family="Arial" font-size="12.00">analyzer.py</text>
<text text-anchor="middle" x="3707.5" y="-753" font-family="Arial" font-size="12.00">Module responsible for analyzing code files using AI.</text>
</g>
<g id="clust4" class="cluster">
<title>cluster_n__Users_jamie_Coding_Sourceflow_sourceflow_core_builder_py</title>
<polygon fill="#e8e8e8" stroke="gray" points="4523,-8 4523,-700.48 5777,-700.48 5777,-8 4523,-8"/>
<text text-anchor="middle" x="5150" y="-685.08" font-family="Arial" font-size="12.00">builder.py</text>
<text text-anchor="middle" x="5150" y="-670.83" font-family="Arial" font-size="12.00">This module is responsible for aggregating analysis results across files, building cross&#45;file dependency and call graphs, and identifying entry points and major execution paths.</text>
</g>
<g id="clust5" class="cluster">
<title>cluster_n__Users_jamie_Coding_Sourceflow_sourceflow_core_explorer_py</title>
<polygon fill="#e8e8e8" stroke="gray" points="5802,-611.98 5802,-700.48 6704,-700.48 6704,-611.98 5802,-611.98"/>
<text text-anchor="middle" x="6253" y="-685.08" font-family="Arial" font-size="12.00">explorer.py</text>
<text text-anchor="middle" x="6253" y="-670.83" font-family="Arial" font-size="12.00">This module is responsible for traversing the directory structure of a code project, identifying relevant code files, and filtering out non&#45;code files and irrelevant directories.</text>
</g>
<!-- main -->
<g id="node1" class="node">
<title>main</title>
<ellipse fill="#d9ead3" stroke="black" cx="224" cy="-637.98" rx="132.76" ry="132.76"/>
<ellipse fill="none" stroke="black" cx="224" cy="-637.98" rx="136.76" ry="136.76"/>
<text text-anchor="middle" x="224" y="-640.48" font-family="Arial" font-size="10.00">main</text>
<text text-anchor="middle" x="224" y="-628.48" font-family="Arial" font-size="10.00">Main entry point for the CLI application.</text>
</g>
<!-- analyze_project -->
<g id="node2" class="node">
<title>analyze_project</title>
<polygon fill="#f5f5f5" stroke="black" points="344.12,-268 103.88,-268 103.88,-232 344.12,-232 344.12,-268"/>
<text text-anchor="middle" x="224" y="-252.5" font-family="Arial" font-size="10.00">analyze_project</text>
<text text-anchor="middle" x="224" y="-240.5" font-family="Arial" font-size="10.00">Analyze a code project and generate visualizations.</text>
</g>
<!-- main&#45;&gt;analyze_project -->
<g id="edge1" class="edge">
<title>main&#45;&gt;analyze_project</title>
<path fill="none" stroke="black" d="M224,-500.92C224,-500.92 224,-279.76 224,-279.76"/>
<polygon fill="black" stroke="black" points="227.5,-279.76 224,-269.76 220.5,-279.76 227.5,-279.76"/>
</g>
<!-- __init__ -->
<g id="node3" class="node">
<title>__init__</title>
<ellipse fill="#d9ead3" stroke="black" cx="616" cy="-637.98" rx="121.62" ry="121.62"/>
<ellipse fill="none" stroke="black" cx="616" cy="-637.98" rx="125.62" ry="125.62"/>
<text text-anchor="middle" x="616" y="-640.48" font-family="Arial" font-size="10.00">__init__</text>
<text text-anchor="middle" x="616" y="-628.48" font-family="Arial" font-size="10.00">Initialize the visualization generator.</text>
</g>
<!-- _check_graphviz -->
<g id="node4" class="node">
<title>_check_graphviz</title>
<polygon fill="#f5f5f5" stroke="black" points="786.25,-268 489.75,-268 489.75,-232 786.25,-232 786.25,-268"/>
<text text-anchor="middle" x="638" y="-252.5" font-family="Arial" font-size="10.00">_check_graphviz</text>
<text text-anchor="middle" x="638" y="-240.5" font-family="Arial" font-size="10.00">Check if Graphviz is installed by looking for the &#39;dot&#39; executable.</text>
</g>
<!-- __init__&#45;&gt;_check_graphviz -->
<g id="edge2" class="edge">
<title>__init__&#45;&gt;_check_graphviz</title>
<path fill="none" stroke="black" d="M616,-512.01C616,-512.01 616,-279.96 616,-279.96"/>
<polygon fill="black" stroke="black" points="619.5,-279.96 616,-269.96 612.5,-279.96 619.5,-279.96"/>
</g>
<!-- generate_function_diagram -->
<g id="node5" class="node">
<title>generate_function_diagram</title>
<ellipse fill="#d9ead3" stroke="black" cx="1047" cy="-637.98" rx="243.6" ry="243.6"/>
<ellipse fill="none" stroke="black" cx="1047" cy="-637.98" rx="247.6" ry="247.6"/>
<text text-anchor="middle" x="1047" y="-640.48" font-family="Arial" font-size="10.00">generate_function_diagram</text>
<text text-anchor="middle" x="1047" y="-628.48" font-family="Arial" font-size="10.00">Generate function call diagrams using the data from the relationship builder.</text>
</g>
<!-- _generate_mermaid -->
<g id="node8" class="node">
<title>_generate_mermaid</title>
<polygon fill="#f5f5f5" stroke="black" points="1302.38,-268 1063.62,-268 1063.62,-232 1302.38,-232 1302.38,-268"/>
<text text-anchor="middle" x="1183" y="-252.5" font-family="Arial" font-size="10.00">_generate_mermaid</text>
<text text-anchor="middle" x="1183" y="-240.5" font-family="Arial" font-size="10.00">Generate Mermaid syntax for function call diagram.</text>
</g>
<!-- generate_function_diagram&#45;&gt;_generate_mermaid -->
<g id="edge7" class="edge">
<title>generate_function_diagram&#45;&gt;_generate_mermaid</title>
<path fill="none" stroke="black" d="M1179.11,-428.09C1179.11,-428.09 1179.11,-279.77 1179.11,-279.77"/>
<polygon fill="black" stroke="black" points="1182.61,-279.77 1179.11,-269.77 1175.61,-279.77 1182.61,-279.77"/>
</g>
<!-- generate_dependency_diagram -->
<g id="node6" class="node">
<title>generate_dependency_diagram</title>
<ellipse fill="#d9ead3" stroke="black" cx="1624" cy="-637.98" rx="267.46" ry="267.46"/>
<ellipse fill="none" stroke="black" cx="1624" cy="-637.98" rx="271.46" ry="271.46"/>
<text text-anchor="middle" x="1624" y="-640.48" font-family="Arial" font-size="10.00">generate_dependency_diagram</text>
<text text-anchor="middle" x="1624" y="-628.48" font-family="Arial" font-size="10.00">Generate module/file dependency diagrams using data from the relationship builder.</text>
</g>
<!-- _generate_dependency_mermaid -->
<g id="node9" class="node">
<title>_generate_dependency_mermaid</title>
<polygon fill="#f5f5f5" stroke="black" points="1751.25,-268 1496.75,-268 1496.75,-232 1751.25,-232 1751.25,-268"/>
<text text-anchor="middle" x="1624" y="-252.5" font-family="Arial" font-size="10.00">_generate_dependency_mermaid</text>
<text text-anchor="middle" x="1624" y="-240.5" font-family="Arial" font-size="10.00">Generate Mermaid syntax for file dependency diagram.</text>
</g>
<!-- generate_dependency_diagram&#45;&gt;_generate_dependency_mermaid -->
<g id="edge8" class="edge">
<title>generate_dependency_diagram&#45;&gt;_generate_dependency_mermaid</title>
<path fill="none" stroke="black" d="M1624,-366.14C1624,-366.14 1624,-279.95 1624,-279.95"/>
<polygon fill="black" stroke="black" points="1627.5,-279.95 1624,-269.95 1620.5,-279.95 1627.5,-279.95"/>
</g>
<!-- generate_execution_path_diagram -->
<g id="node7" class="node">
<title>generate_execution_path_diagram</title>
<ellipse fill="#d9ead3" stroke="black" cx="2251" cy="-637.98" rx="293.98" ry="293.98"/>
<ellipse fill="none" stroke="black" cx="2251" cy="-637.98" rx="297.98" ry="297.98"/>
<text text-anchor="middle" x="2251" y="-640.48" font-family="Arial" font-size="10.00">generate_execution_path_diagram</text>
<text text-anchor="middle" x="2251" y="-628.48" font-family="Arial" font-size="10.00">Generate execution path diagrams from entry points using data from the relationship builder.</text>
</g>
<!-- _generate_execution_path_mermaid -->
<g id="node10" class="node">
<title>_generate_execution_path_mermaid</title>
<polygon fill="#f5f5f5" stroke="black" points="2217,-268 1967,-268 1967,-232 2217,-232 2217,-268"/>
<text text-anchor="middle" x="2092" y="-252.5" font-family="Arial" font-size="10.00">_generate_execution_path_mermaid</text>
<text text-anchor="middle" x="2092" y="-240.5" font-family="Arial" font-size="10.00">Generate Mermaid syntax for execution path diagram.</text>
</g>
<!-- generate_execution_path_diagram&#45;&gt;_generate_execution_path_mermaid -->
<g id="edge9" class="edge">
<title>generate_execution_path_diagram&#45;&gt;_generate_execution_path_mermaid</title>
<path fill="none" stroke="black" d="M2092,-385.42C2092,-385.42 2092,-279.63 2092,-279.63"/>
<polygon fill="black" stroke="black" points="2095.5,-279.63 2092,-269.63 2088.5,-279.63 2095.5,-279.63"/>
</g>
<!-- _sanitize_name -->
<g id="node11" class="node">
<title>_sanitize_name</title>
<polygon fill="#f5f5f5" stroke="black" points="1786.5,-160 1461.5,-160 1461.5,-124 1786.5,-124 1786.5,-160"/>
<text text-anchor="middle" x="1624" y="-144.5" font-family="Arial" font-size="10.00">_sanitize_name</text>
<text text-anchor="middle" x="1624" y="-132.5" font-family="Arial" font-size="10.00">Convert a function or file name to a valid ID for Graphviz and Mermaid.</text>
</g>
<!-- _generate_mermaid&#45;&gt;_sanitize_name -->
<g id="edge10" class="edge">
<title>_generate_mermaid&#45;&gt;_sanitize_name</title>
<path fill="none" stroke="black" d="M1302.59,-250C1384.78,-250 1479.12,-250 1479.12,-250 1479.12,-250 1479.12,-171.83 1479.12,-171.83"/>
<polygon fill="black" stroke="black" points="1482.63,-171.83 1479.13,-161.83 1475.63,-171.83 1482.63,-171.83"/>
</g>
<!-- _generate_dependency_mermaid&#45;&gt;_sanitize_name -->
<g id="edge11" class="edge">
<title>_generate_dependency_mermaid&#45;&gt;_sanitize_name</title>
<path fill="none" stroke="black" d="M1624,-231.68C1624,-231.68 1624,-171.92 1624,-171.92"/>
<polygon fill="black" stroke="black" points="1627.5,-171.92 1624,-161.92 1620.5,-171.92 1627.5,-171.92"/>
</g>
<!-- _generate_execution_path_mermaid&#45;&gt;_sanitize_name -->
<g id="edge12" class="edge">
<title>_generate_execution_path_mermaid&#45;&gt;_sanitize_name</title>
<path fill="none" stroke="black" d="M1966.61,-250C1875.78,-250 1768.88,-250 1768.88,-250 1768.88,-250 1768.88,-171.83 1768.88,-171.83"/>
<polygon fill="black" stroke="black" points="1772.38,-171.83 1768.88,-161.83 1765.38,-171.83 1772.38,-171.83"/>
</g>
<!-- export_data -->
<g id="node12" class="node">
<title>export_data</title>
<ellipse fill="#d9ead3" stroke="black" cx="2745" cy="-637.98" rx="134.35" ry="134.35"/>
<ellipse fill="none" stroke="black" cx="2745" cy="-637.98" rx="138.35" ry="138.35"/>
<text text-anchor="middle" x="2745" y="-640.48" font-family="Arial" font-size="10.00">export_data</text>
<text text-anchor="middle" x="2745" y="-628.48" font-family="Arial" font-size="10.00">Export the analysis data to a JSON file.</text>
</g>
<!-- count_tokens -->
<g id="node13" class="node">
<title>count_tokens</title>
<polygon fill="#f5f5f5" stroke="black" points="3160.25,-655.98 2941.75,-655.98 2941.75,-619.98 3160.25,-619.98 3160.25,-655.98"/>
<text text-anchor="middle" x="3051" y="-640.48" font-family="Arial" font-size="10.00">count_tokens</text>
<text text-anchor="middle" x="3051" y="-628.48" font-family="Arial" font-size="10.00">Counts the number of tokens in the given text.</text>
</g>
<!-- _create_prompt -->
<g id="node14" class="node">
<title>_create_prompt</title>
<polygon fill="#f5f5f5" stroke="black" points="3391.38,-655.98 3218.62,-655.98 3218.62,-619.98 3391.38,-619.98 3391.38,-655.98"/>
<text text-anchor="middle" x="3305" y="-640.48" font-family="Arial" font-size="10.00">_create_prompt</text>
<text text-anchor="middle" x="3305" y="-628.48" font-family="Arial" font-size="10.00">Creates the prompt for the AI agent.</text>
</g>
<!-- _parse_response -->
<g id="node15" class="node">
<title>_parse_response</title>
<polygon fill="#f5f5f5" stroke="black" points="3634.75,-655.98 3449.25,-655.98 3449.25,-619.98 3634.75,-619.98 3634.75,-655.98"/>
<text text-anchor="middle" x="3542" y="-640.48" font-family="Arial" font-size="10.00">_parse_response</text>
<text text-anchor="middle" x="3542" y="-628.48" font-family="Arial" font-size="10.00">Parses the AI agent&#39;s JSON response.</text>
</g>
<!-- analyze_file -->
<g id="node16" class="node">
<title>analyze_file</title>
<ellipse fill="#d9ead3" stroke="black" cx="3793" cy="-637.98" rx="96.17" ry="96.17"/>
<ellipse fill="none" stroke="black" cx="3793" cy="-637.98" rx="100.17" ry="100.17"/>
<text text-anchor="middle" x="3793" y="-640.48" font-family="Arial" font-size="10.00">analyze_file</text>
<text text-anchor="middle" x="3793" y="-628.48" font-family="Arial" font-size="10.00">Analyzes a single code file.</text>
</g>
<!-- _analyze_code -->
<g id="node17" class="node">
<title>_analyze_code</title>
<polygon fill="#f5f5f5" stroke="black" points="4158.62,-655.98 3951.38,-655.98 3951.38,-619.98 4158.62,-619.98 4158.62,-655.98"/>
<text text-anchor="middle" x="4055" y="-640.48" font-family="Arial" font-size="10.00">_analyze_code</text>
<text text-anchor="middle" x="4055" y="-628.48" font-family="Arial" font-size="10.00">Sends the code to the AI agent for analysis.</text>
</g>
<!-- _analyze_large_file -->
<g id="node18" class="node">
<title>_analyze_large_file</title>
<polygon fill="#f5f5f5" stroke="black" points="4473,-655.98 4217,-655.98 4217,-619.98 4473,-619.98 4473,-655.98"/>
<text text-anchor="middle" x="4345" y="-640.48" font-family="Arial" font-size="10.00">_analyze_large_file</text>
<text text-anchor="middle" x="4345" y="-628.48" font-family="Arial" font-size="10.00">Analyzes a large file by chunking it into smaller pieces.</text>
</g>
<!-- add_file_analysis -->
<g id="node19" class="node">
<title>add_file_analysis</title>
<polygon fill="#f5f5f5" stroke="black" points="4781.38,-655.98 4530.62,-655.98 4530.62,-619.98 4781.38,-619.98 4781.38,-655.98"/>
<text text-anchor="middle" x="4656" y="-640.48" font-family="Arial" font-size="10.00">add_file_analysis</text>
<text text-anchor="middle" x="4656" y="-628.48" font-family="Arial" font-size="10.00">Add a file&#39;s analysis results to the relationship builder.</text>
</g>
<!-- get_function_details -->
<g id="node20" class="node">
<title>get_function_details</title>
<polygon fill="#f5f5f5" stroke="black" points="5002.5,-655.98 4839.5,-655.98 4839.5,-619.98 5002.5,-619.98 5002.5,-655.98"/>
<text text-anchor="middle" x="4921" y="-640.48" font-family="Arial" font-size="10.00">get_function_details</text>
<text text-anchor="middle" x="4921" y="-628.48" font-family="Arial" font-size="10.00">Get details for a specific function.</text>
</g>
<!-- get_functions_by_file -->
<g id="node21" class="node">
<title>get_functions_by_file</title>
<polygon fill="#f5f5f5" stroke="black" points="5257,-655.98 5061,-655.98 5061,-619.98 5257,-619.98 5257,-655.98"/>
<text text-anchor="middle" x="5159" y="-640.48" font-family="Arial" font-size="10.00">get_functions_by_file</text>
<text text-anchor="middle" x="5159" y="-628.48" font-family="Arial" font-size="10.00">Get all functions defined in a specific file.</text>
</g>
<!-- get_function_callers -->
<g id="node22" class="node">
<title>get_function_callers</title>
<polygon fill="#f5f5f5" stroke="black" points="5525.12,-655.98 5314.88,-655.98 5314.88,-619.98 5525.12,-619.98 5525.12,-655.98"/>
<text text-anchor="middle" x="5420" y="-640.48" font-family="Arial" font-size="10.00">get_function_callers</text>
<text text-anchor="middle" x="5420" y="-628.48" font-family="Arial" font-size="10.00">Get all functions that call a specific function.</text>
</g>
<!-- get_function_callees -->
<g id="node23" class="node">
<title>get_function_callees</title>
<polygon fill="#f5f5f5" stroke="black" points="5745.38,-52 5530.62,-52 5530.62,-16 5745.38,-16 5745.38,-52"/>
<text text-anchor="middle" x="5638" y="-36.5" font-family="Arial" font-size="10.00">get_function_callees</text>
<text text-anchor="middle" x="5638" y="-24.5" font-family="Arial" font-size="10.00">Get all functions called by a specific function.</text>
</g>
<!-- get_entry_point_paths -->
<g id="node24" class="node">
<title>get_entry_point_paths</title>
<polygon fill="#f5f5f5" stroke="black" points="5769,-268 5507,-268 5507,-232 5769,-232 5769,-268"/>
<text text-anchor="middle" x="5638" y="-252.5" font-family="Arial" font-size="10.00">get_entry_point_paths</text>
<text text-anchor="middle" x="5638" y="-240.5" font-family="Arial" font-size="10.00">Get the major execution paths starting from entry points.</text>
</g>
<!-- _trace_path_from -->
<g id="node25" class="node">
<title>_trace_path_from</title>
<polygon fill="#f5f5f5" stroke="black" points="5745,-160 5531,-160 5531,-124 5745,-124 5745,-160"/>
<text text-anchor="middle" x="5638" y="-144.5" font-family="Arial" font-size="10.00">_trace_path_from</text>
<text text-anchor="middle" x="5638" y="-132.5" font-family="Arial" font-size="10.00">Trace a path starting from a specific function.</text>
</g>
<!-- get_entry_point_paths&#45;&gt;_trace_path_from -->
<g id="edge3" class="edge">
<title>get_entry_point_paths&#45;&gt;_trace_path_from</title>
<path fill="none" stroke="black" d="M5673.67,-231.68C5673.67,-231.68 5673.67,-171.92 5673.67,-171.92"/>
<polygon fill="black" stroke="black" points="5677.17,-171.92 5673.67,-161.92 5670.17,-171.92 5677.17,-171.92"/>
</g>
<!-- _trace_path_from&#45;&gt;get_function_callees -->
<g id="edge4" class="edge">
<title>_trace_path_from&#45;&gt;get_function_callees</title>
<path fill="none" stroke="black" d="M5673.67,-123.68C5673.67,-123.68 5673.67,-63.92 5673.67,-63.92"/>
<polygon fill="black" stroke="black" points="5677.17,-63.92 5673.67,-53.92 5670.17,-63.92 5677.17,-63.92"/>
</g>
<!-- _trace_path_from&#45;&gt;_trace_path_from -->
<g id="edge5" class="edge">
<title>_trace_path_from&#45;&gt;_trace_path_from</title>
<path fill="none" stroke="black" d="M5602.33,-160.28C5602.33,-175.95 5602.33,-196 5602.33,-196 5602.33,-196 5518.81,-196 5518.81,-196 5518.81,-196 5518.81,-88 5518.81,-88 5518.81,-88 5602.33,-88 5602.33,-88 5602.33,-88 5602.33,-112.2 5602.33,-112.2"/>
<polygon fill="black" stroke="black" points="5598.83,-112.2 5602.33,-122.2 5605.83,-112.2 5598.83,-112.2"/>
</g>
<!-- get_summary -->
<g id="node26" class="node">
<title>get_summary</title>
<polygon fill="#f5f5f5" stroke="black" points="5768.75,-655.98 5583.25,-655.98 5583.25,-619.98 5768.75,-619.98 5768.75,-655.98"/>
<text text-anchor="middle" x="5676" y="-640.48" font-family="Arial" font-size="10.00">get_summary</text>
<text text-anchor="middle" x="5676" y="-628.48" font-family="Arial" font-size="10.00">Get a summary of the analysis results.</text>
</g>
<!-- get_summary&#45;&gt;get_entry_point_paths -->
<g id="edge6" class="edge">
<title>get_summary&#45;&gt;get_entry_point_paths</title>
<path fill="none" stroke="black" d="M5676,-619.53C5676,-619.53 5676,-279.63 5676,-279.63"/>
<polygon fill="black" stroke="black" points="5679.5,-279.63 5676,-269.63 5672.5,-279.63 5679.5,-279.63"/>
</g>
<!-- explore -->
<g id="node27" class="node">
<title>explore</title>
<polygon fill="#f5f5f5" stroke="black" points="6263.88,-655.98 5962.12,-655.98 5962.12,-619.98 6263.88,-619.98 6263.88,-655.98"/>
<text text-anchor="middle" x="6113" y="-640.48" font-family="Arial" font-size="10.00">explore</text>
<text text-anchor="middle" x="6113" y="-628.48" font-family="Arial" font-size="10.00">Recursively explores the directory structure starting from root_dir.</text>
</g>
<!-- get_file_stats -->
<g id="node28" class="node">
<title>get_file_stats</title>
<polygon fill="#f5f5f5" stroke="black" points="6627.62,-655.98 6390.38,-655.98 6390.38,-619.98 6627.62,-619.98 6627.62,-655.98"/>
<text text-anchor="middle" x="6509" y="-640.48" font-family="Arial" font-size="10.00">get_file_stats</text>
<text text-anchor="middle" x="6509" y="-628.48" font-family="Arial" font-size="10.00">Generates statistics about the identified code files.</text>
</g>
</g>
</svg>
