<?xml version="1.0" encoding="UTF-8" standalone="no"?>
<!DOCTYPE svg PUBLIC "-//W3C//DTD SVG 1.1//EN"
 "http://www.w3.org/Graphics/SVG/1.1/DTD/svg11.dtd">
<!-- Generated by graphviz version 12.2.1 (20241206.2353)
 -->
<!-- Title: execution_paths Pages: 1 -->
<svg width="1693pt" height="3632pt"
 viewBox="0.00 0.00 1692.69 3632.00" xmlns="http://www.w3.org/2000/svg" xmlns:xlink="http://www.w3.org/1999/xlink">
<g id="graph0" class="graph" transform="scale(1 1) rotate(0) translate(4 3628)">
<title>execution_paths</title>
<polygon fill="white" stroke="none" points="-4,4 -4,-3628 1688.69,-3628 1688.69,4 -4,4"/>
<g id="clust1" class="cluster">
<title>cluster_path_0</title>
<polygon fill="#e8f4f8" stroke="blue" points="214.3,-8 214.3,-382 566.4,-382 566.4,-8 214.3,-8"/>
<text text-anchor="middle" x="390.35" y="-366.6" font-family="Arial" font-size="12.00">Path from export_data</text>
</g>
<g id="clust2" class="cluster">
<title>cluster_path_1</title>
<polygon fill="#e8f4f8" stroke="blue" points="8,-1786 8,-2573 1676.69,-2573 1676.69,-1786 8,-1786"/>
<text text-anchor="middle" x="842.35" y="-2557.6" font-family="Arial" font-size="12.00">Path from generate_execution_path_diagram</text>
</g>
<g id="clust3" class="cluster">
<title>cluster_path_2</title>
<polygon fill="#e8f4f8" stroke="blue" points="41.41,-1058 41.41,-1778 1176.69,-1778 1176.69,-1058 41.41,-1058"/>
<text text-anchor="middle" x="609.05" y="-1762.6" font-family="Arial" font-size="12.00">Path from generate_dependency_diagram</text>
</g>
<g id="clust4" class="cluster">
<title>cluster_path_3</title>
<polygon fill="#e8f4f8" stroke="blue" points="71.64,-390 71.64,-1050 1167.69,-1050 1167.69,-390 71.64,-390"/>
<text text-anchor="middle" x="619.67" y="-1034.6" font-family="Arial" font-size="12.00">Path from generate_function_diagram</text>
</g>
<g id="clust5" class="cluster">
<title>cluster_path_4</title>
<polygon fill="#e8f4f8" stroke="blue" points="260.44,-2581 260.44,-2863 520.26,-2863 520.26,-2581 260.44,-2581"/>
<text text-anchor="middle" x="390.35" y="-2847.6" font-family="Arial" font-size="12.00">Path from analyze_file</text>
</g>
<g id="clust6" class="cluster">
<title>cluster_path_5</title>
<polygon fill="#e8f4f8" stroke="blue" points="226.5,-2871 226.5,-3221 1202.19,-3221 1202.19,-2871 226.5,-2871"/>
<text text-anchor="middle" x="714.35" y="-3205.6" font-family="Arial" font-size="12.00">Path from __init__</text>
</g>
<g id="clust7" class="cluster">
<title>cluster_path_6</title>
<polygon fill="#e8f4f8" stroke="blue" points="207.93,-3229 207.93,-3616 1164.32,-3616 1164.32,-3229 207.93,-3229"/>
<text text-anchor="middle" x="686.13" y="-3600.6" font-family="Arial" font-size="12.00">Path from main</text>
</g>
<!-- export_data -->
<g id="node1" class="node">
<title>export_data</title>
<ellipse fill="none" stroke="black" cx="390.35" cy="-184" rx="164.05" ry="164.05"/>
<ellipse fill="none" stroke="black" cx="390.35" cy="-184" rx="168.05" ry="168.05"/>
<text text-anchor="middle" x="390.35" y="-187.2" font-family="Times,serif" font-size="14.00">export_data</text>
<text text-anchor="middle" x="390.35" y="-170.7" font-family="Times,serif" font-size="14.00">Export the analysis data to a JSON file.</text>
</g>
<!-- generate_execution_path_diagram -->
<g id="node2" class="node">
<title>generate_execution_path_diagram</title>
<ellipse fill="none" stroke="black" cx="390.35" cy="-2168" rx="370.35" ry="370.35"/>
<ellipse fill="none" stroke="black" cx="390.35" cy="-2168" rx="374.35" ry="374.35"/>
<text text-anchor="middle" x="390.35" y="-2171.2" font-family="Times,serif" font-size="14.00">generate_execution_path_diagram</text>
<text text-anchor="middle" x="390.35" y="-2154.7" font-family="Times,serif" font-size="14.00">Generate execution path diagrams from entry points using data from the relationship builder.</text>
</g>
<!-- _generate_execution_path_mermaid -->
<g id="node3" class="node">
<title>_generate_execution_path_mermaid</title>
<polygon fill="none" stroke="black" points="1165.32,-2011.5 851.57,-2011.5 851.57,-1970.5 1165.32,-1970.5 1165.32,-2011.5"/>
<text text-anchor="middle" x="1008.44" y="-1994.2" font-family="Times,serif" font-size="14.00">_generate_execution_path_mermaid</text>
<text text-anchor="middle" x="1008.44" y="-1977.7" font-family="Times,serif" font-size="14.00">Generate Mermaid syntax for execution path diagram.</text>
</g>
<!-- generate_execution_path_diagram&#45;&gt;_generate_execution_path_mermaid -->
<g id="edge1" class="edge">
<title>generate_execution_path_diagram&#45;&gt;_generate_execution_path_mermaid</title>
<path fill="none" stroke="blue" stroke-width="2" d="M750.62,-2064.78C814.59,-2046.4 875.53,-2028.9 921.98,-2015.55"/>
<polygon fill="blue" stroke="blue" stroke-width="2" points="922.83,-2018.95 931.47,-2012.83 920.9,-2012.22 922.83,-2018.95"/>
</g>
<!-- _sanitize_name -->
<g id="node4" class="node">
<title>_sanitize_name</title>
<polygon fill="none" stroke="black" points="1668.69,-1835.5 1252.19,-1835.5 1252.19,-1794.5 1668.69,-1794.5 1668.69,-1835.5"/>
<text text-anchor="middle" x="1460.44" y="-1818.2" font-family="Times,serif" font-size="14.00">_sanitize_name</text>
<text text-anchor="middle" x="1460.44" y="-1801.7" font-family="Times,serif" font-size="14.00">Convert a function or file name to a valid ID for Graphviz and Mermaid.</text>
</g>
<!-- _generate_execution_path_mermaid&#45;&gt;_sanitize_name -->
<g id="edge2" class="edge">
<title>_generate_execution_path_mermaid&#45;&gt;_sanitize_name</title>
<path fill="none" stroke="blue" stroke-width="2" d="M1062.83,-1970.12C1145.52,-1937.78 1304.35,-1875.66 1393.88,-1840.64"/>
<polygon fill="blue" stroke="blue" stroke-width="2" points="1394.92,-1843.99 1402.96,-1837.09 1392.37,-1837.48 1394.92,-1843.99"/>
</g>
<!-- generate_dependency_diagram -->
<g id="node5" class="node">
<title>generate_dependency_diagram</title>
<ellipse fill="none" stroke="black" cx="390.35" cy="-1407" rx="336.94" ry="336.94"/>
<ellipse fill="none" stroke="black" cx="390.35" cy="-1407" rx="340.94" ry="340.94"/>
<text text-anchor="middle" x="390.35" y="-1410.2" font-family="Times,serif" font-size="14.00">generate_dependency_diagram</text>
<text text-anchor="middle" x="390.35" y="-1393.7" font-family="Times,serif" font-size="14.00">Generate module/file dependency diagrams using data from the relationship builder.</text>
</g>
<!-- _generate_dependency_mermaid -->
<g id="node6" class="node">
<title>_generate_dependency_mermaid</title>
<polygon fill="none" stroke="black" points="1168.69,-1587.5 848.19,-1587.5 848.19,-1546.5 1168.69,-1546.5 1168.69,-1587.5"/>
<text text-anchor="middle" x="1008.44" y="-1570.2" font-family="Times,serif" font-size="14.00">_generate_dependency_mermaid</text>
<text text-anchor="middle" x="1008.44" y="-1553.7" font-family="Times,serif" font-size="14.00">Generate Mermaid syntax for file dependency diagram.</text>
</g>
<!-- generate_dependency_diagram&#45;&gt;_generate_dependency_mermaid -->
<g id="edge3" class="edge">
<title>generate_dependency_diagram&#45;&gt;_generate_dependency_mermaid</title>
<path fill="none" stroke="blue" stroke-width="2" d="M720.59,-1492.5C791.78,-1510.99 861.46,-1529.09 914.32,-1542.81"/>
<polygon fill="blue" stroke="blue" stroke-width="2" points="913.21,-1546.14 923.77,-1545.27 914.97,-1539.37 913.21,-1546.14"/>
</g>
<!-- _generate_dependency_mermaid&#45;&gt;_sanitize_name -->
<g id="edge4" class="edge">
<title>_generate_dependency_mermaid&#45;&gt;_sanitize_name</title>
<path fill="none" stroke="blue" stroke-width="2" d="M1047.42,-1587.93C1128.72,-1632.74 1319.55,-1737.9 1410.1,-1787.8"/>
<polygon fill="blue" stroke="blue" stroke-width="2" points="1408.31,-1790.82 1418.76,-1792.58 1411.69,-1784.68 1408.31,-1790.82"/>
</g>
<!-- generate_function_diagram -->
<g id="node7" class="node">
<title>generate_function_diagram</title>
<ellipse fill="none" stroke="black" cx="390.35" cy="-709" rx="306.71" ry="306.71"/>
<ellipse fill="none" stroke="black" cx="390.35" cy="-709" rx="310.71" ry="310.71"/>
<text text-anchor="middle" x="390.35" y="-712.2" font-family="Times,serif" font-size="14.00">generate_function_diagram</text>
<text text-anchor="middle" x="390.35" y="-695.7" font-family="Times,serif" font-size="14.00">Generate function call diagrams using the data from the relationship builder.</text>
</g>
<!-- _generate_mermaid -->
<g id="node8" class="node">
<title>_generate_mermaid</title>
<polygon fill="none" stroke="black" points="1159.69,-874.5 857.19,-874.5 857.19,-833.5 1159.69,-833.5 1159.69,-874.5"/>
<text text-anchor="middle" x="1008.44" y="-857.2" font-family="Times,serif" font-size="14.00">_generate_mermaid</text>
<text text-anchor="middle" x="1008.44" y="-840.7" font-family="Times,serif" font-size="14.00">Generate Mermaid syntax for function call diagram.</text>
</g>
<!-- generate_function_diagram&#45;&gt;_generate_mermaid -->
<g id="edge5" class="edge">
<title>generate_function_diagram&#45;&gt;_generate_mermaid</title>
<path fill="none" stroke="blue" stroke-width="2" d="M693.08,-780.01C769.77,-798.06 846.98,-816.24 905.7,-830.05"/>
<polygon fill="blue" stroke="blue" stroke-width="2" points="904.83,-833.45 915.37,-832.33 906.43,-826.63 904.83,-833.45"/>
</g>
<!-- _generate_mermaid&#45;&gt;_sanitize_name -->
<g id="edge6" class="edge">
<title>_generate_mermaid&#45;&gt;_sanitize_name</title>
<path fill="none" stroke="blue" stroke-width="2" d="M1029.71,-874.92C1079.2,-926.01 1202.19,-1053 1202.19,-1053 1202.19,-1053 1399.13,-1636.35 1448.38,-1782.24"/>
<polygon fill="blue" stroke="blue" stroke-width="2" points="1444.95,-1783 1451.46,-1791.36 1451.58,-1780.76 1444.95,-1783"/>
</g>
<!-- analyze_file -->
<g id="node9" class="node">
<title>analyze_file</title>
<ellipse fill="none" stroke="black" cx="390.35" cy="-2711" rx="117.91" ry="117.91"/>
<ellipse fill="none" stroke="black" cx="390.35" cy="-2711" rx="121.91" ry="121.91"/>
<text text-anchor="middle" x="390.35" y="-2714.2" font-family="Times,serif" font-size="14.00">analyze_file</text>
<text text-anchor="middle" x="390.35" y="-2697.7" font-family="Times,serif" font-size="14.00">Analyzes a single code file.</text>
</g>
<!-- __init__ -->
<g id="node10" class="node">
<title>__init__</title>
<ellipse fill="none" stroke="black" cx="390.35" cy="-3035" rx="151.85" ry="151.85"/>
<ellipse fill="none" stroke="black" cx="390.35" cy="-3035" rx="155.85" ry="155.85"/>
<text text-anchor="middle" x="390.35" y="-3038.2" font-family="Times,serif" font-size="14.00">__init__</text>
<text text-anchor="middle" x="390.35" y="-3021.7" font-family="Times,serif" font-size="14.00">Initialize the visualization generator.</text>
</g>
<!-- _check_graphviz -->
<g id="node11" class="node">
<title>_check_graphviz</title>
<polygon fill="none" stroke="black" points="1194.19,-3055.5 822.69,-3055.5 822.69,-3014.5 1194.19,-3014.5 1194.19,-3055.5"/>
<text text-anchor="middle" x="1008.44" y="-3038.2" font-family="Times,serif" font-size="14.00">_check_graphviz</text>
<text text-anchor="middle" x="1008.44" y="-3021.7" font-family="Times,serif" font-size="14.00">Check if Graphviz is installed by looking for the &#39;dot&#39; executable.</text>
</g>
<!-- __init__&#45;&gt;_check_graphviz -->
<g id="edge7" class="edge">
<title>__init__&#45;&gt;_check_graphviz</title>
<path fill="none" stroke="blue" stroke-width="2" d="M546.42,-3035C626.18,-3035 724.28,-3035 809.46,-3035"/>
<polygon fill="blue" stroke="blue" stroke-width="2" points="809.44,-3038.5 819.44,-3035 809.44,-3031.5 809.44,-3038.5"/>
</g>
<!-- main -->
<g id="node12" class="node">
<title>main</title>
<ellipse fill="none" stroke="black" cx="390.35" cy="-3411" rx="170.41" ry="170.41"/>
<ellipse fill="none" stroke="black" cx="390.35" cy="-3411" rx="174.41" ry="174.41"/>
<text text-anchor="middle" x="390.35" y="-3414.2" font-family="Times,serif" font-size="14.00">main</text>
<text text-anchor="middle" x="390.35" y="-3397.7" font-family="Times,serif" font-size="14.00">Main entry point for the CLI application.</text>
</g>
<!-- analyze_project -->
<g id="node13" class="node">
<title>analyze_project</title>
<polygon fill="none" stroke="black" points="1156.32,-3431.5 860.57,-3431.5 860.57,-3390.5 1156.32,-3390.5 1156.32,-3431.5"/>
<text text-anchor="middle" x="1008.44" y="-3414.2" font-family="Times,serif" font-size="14.00">analyze_project</text>
<text text-anchor="middle" x="1008.44" y="-3397.7" font-family="Times,serif" font-size="14.00">Analyze a code project and generate visualizations.</text>
</g>
<!-- main&#45;&gt;analyze_project -->
<g id="edge8" class="edge">
<title>main&#45;&gt;analyze_project</title>
<path fill="none" stroke="blue" stroke-width="2" d="M565.01,-3411C653.62,-3411 760.68,-3411 847.29,-3411"/>
<polygon fill="blue" stroke="blue" stroke-width="2" points="847.16,-3414.5 857.16,-3411 847.16,-3407.5 847.16,-3414.5"/>
</g>
</g>
</svg>
