<?xml version="1.0" encoding="UTF-8" standalone="no"?>
<!DOCTYPE svg PUBLIC "-//W3C//DTD SVG 1.1//EN"
 "http://www.w3.org/Graphics/SVG/1.1/DTD/svg11.dtd">
<!-- Generated by graphviz version 12.2.1 (20241206.2353)
 -->
<!-- Title: code_structure Pages: 1 -->
<svg width="9060pt" height="866pt"
 viewBox="0.00 0.00 9060.00 866.00" xmlns="http://www.w3.org/2000/svg" xmlns:xlink="http://www.w3.org/1999/xlink">
<g id="graph0" class="graph" transform="scale(1 1) rotate(0) translate(4 862)">
<title>code_structure</title>
<polygon fill="white" stroke="none" points="-4,4 -4,-862 9056,-862 9056,4 -4,4"/>
<g id="clust1" class="cluster">
<title>cluster_n__Users_jamie_Coding_Sourceflow_sourceflow_main_py</title>
<polygon fill="#e8e8e8" stroke="gray" points="8,-224 8,-754.01 474,-754.01 474,-224 8,-224"/>
<text text-anchor="middle" x="241" y="-738.61" font-family="Arial" font-size="12.00">main.py</text>
<text text-anchor="middle" x="241" y="-724.36" font-family="Arial" font-size="12.00">This module serves as the main entry point for the Code Project Analyzer application.</text>
</g>
<g id="clust2" class="cluster">
<title>cluster_n__Users_jamie_Coding_Sourceflow_sourceflow_core_explorer_py</title>
<polygon fill="#e8e8e8" stroke="gray" points="482,-347.38 482,-834.62 1782,-834.62 1782,-347.38 482,-347.38"/>
<text text-anchor="middle" x="1132" y="-819.22" font-family="Arial" font-size="12.00">explorer.py</text>
<text text-anchor="middle" x="1132" y="-804.97" font-family="Arial" font-size="12.00">This module is responsible for traversing the directory structure of a code project, identifying relevant code files, and filtering out non&#45;code files and irrelevant directories.</text>
</g>
<g id="clust3" class="cluster">
<title>cluster_n__Users_jamie_Coding_Sourceflow_sourceflow_core_analyzer_py</title>
<polygon fill="#e8e8e8" stroke="gray" points="1824,-464.58 1824,-717.42 3371,-717.42 3371,-464.58 1824,-464.58"/>
<text text-anchor="middle" x="2597.5" y="-702.02" font-family="Arial" font-size="12.00">analyzer.py</text>
<text text-anchor="middle" x="2597.5" y="-687.77" font-family="Arial" font-size="12.00">A module for analyzing code files using AI.</text>
</g>
<g id="clust4" class="cluster">
<title>cluster_n__Users_jamie_Coding_Sourceflow_sourceflow_core_builder_py</title>
<polygon fill="#e8e8e8" stroke="gray" points="3413,-8 3413,-798.56 4863,-798.56 4863,-8 3413,-8"/>
<text text-anchor="middle" x="4138" y="-783.16" font-family="Arial" font-size="12.00">builder.py</text>
<text text-anchor="middle" x="4138" y="-768.91" font-family="Arial" font-size="12.00">This module is responsible for aggregating analysis results across files, building cross&#45;file dependency and call graphs, and identifying entry points and major execution paths.</text>
</g>
<g id="clust5" class="cluster">
<title>cluster_n__Users_jamie_Coding_Sourceflow_sourceflow_core_visualizer_py</title>
<polygon fill="#e8e8e8" stroke="gray" points="4905,-332 4905,-850 9044,-850 9044,-332 4905,-332"/>
<text text-anchor="middle" x="6974.5" y="-834.6" font-family="Arial" font-size="12.00">visualizer.py</text>
<text text-anchor="middle" x="6974.5" y="-820.35" font-family="Arial" font-size="12.00">This module generates visual representations of code structure, dependencies, and execution flows from analysis results. It supports visual outputs in multiple formats, namely Graphviz and Mermaid.</text>
</g>
<!-- main -->
<g id="node1" class="node">
<title>main</title>
<ellipse fill="#d9ead3" stroke="black" cx="224" cy="-572.75" rx="132.76" ry="132.76"/>
<ellipse fill="none" stroke="black" cx="224" cy="-572.75" rx="136.76" ry="136.76"/>
<text text-anchor="middle" x="224" y="-575.25" font-family="Arial" font-size="10.00">main</text>
<text text-anchor="middle" x="224" y="-563.25" font-family="Arial" font-size="10.00">Main entry point for the CLI application.</text>
</g>
<!-- analyze_project -->
<g id="node2" class="node">
<title>analyze_project</title>
<polygon fill="#f5f5f5" stroke="black" points="344.12,-268 103.88,-268 103.88,-232 344.12,-232 344.12,-268"/>
<text text-anchor="middle" x="224" y="-252.5" font-family="Arial" font-size="10.00">analyze_project</text>
<text text-anchor="middle" x="224" y="-240.5" font-family="Arial" font-size="10.00">Analyze a code project and generate visualizations.</text>
</g>
<!-- main&#45;&gt;analyze_project -->
<g id="edge1" class="edge">
<title>main&#45;&gt;analyze_project</title>
<path fill="none" stroke="black" d="M224,-435.87C224,-435.87 224,-279.96 224,-279.96"/>
<polygon fill="black" stroke="black" points="227.5,-279.96 224,-269.96 220.5,-279.96 227.5,-279.96"/>
</g>
<!-- __init__ -->
<g id="node3" class="node">
<title>__init__</title>
<ellipse fill="#d9ead3" stroke="black" cx="685" cy="-572.75" rx="190.57" ry="190.57"/>
<ellipse fill="none" stroke="black" cx="685" cy="-572.75" rx="194.57" ry="194.57"/>
<text text-anchor="middle" x="685" y="-575.25" font-family="Arial" font-size="10.00">__init__</text>
<text text-anchor="middle" x="685" y="-563.25" font-family="Arial" font-size="10.00">Initializes the DirectoryExplorer with configurable settings.</text>
</g>
<!-- explore -->
<g id="node4" class="node">
<title>explore</title>
<ellipse fill="#d9ead3" stroke="black" cx="1155" cy="-572.75" rx="213.37" ry="213.37"/>
<ellipse fill="none" stroke="black" cx="1155" cy="-572.75" rx="217.37" ry="217.37"/>
<text text-anchor="middle" x="1155" y="-575.25" font-family="Arial" font-size="10.00">explore</text>
<text text-anchor="middle" x="1155" y="-563.25" font-family="Arial" font-size="10.00">Recursively explores the directory structure starting from root_dir.</text>
</g>
<!-- get_file_stats -->
<g id="node5" class="node">
<title>get_file_stats</title>
<ellipse fill="#d9ead3" stroke="black" cx="1602" cy="-572.75" rx="167.76" ry="167.76"/>
<ellipse fill="none" stroke="black" cx="1602" cy="-572.75" rx="171.76" ry="171.76"/>
<text text-anchor="middle" x="1602" y="-575.25" font-family="Arial" font-size="10.00">get_file_stats</text>
<text text-anchor="middle" x="1602" y="-563.25" font-family="Arial" font-size="10.00">Generates statistics about the identified code files.</text>
</g>
<!-- count_tokens -->
<g id="node6" class="node">
<title>count_tokens</title>
<polygon fill="#f5f5f5" stroke="black" points="2050.25,-590.75 1831.75,-590.75 1831.75,-554.75 2050.25,-554.75 2050.25,-590.75"/>
<text text-anchor="middle" x="1941" y="-575.25" font-family="Arial" font-size="10.00">count_tokens</text>
<text text-anchor="middle" x="1941" y="-563.25" font-family="Arial" font-size="10.00">Counts the number of tokens in the given text.</text>
</g>
<!-- _create_prompt -->
<g id="node7" class="node">
<title>_create_prompt</title>
<polygon fill="#f5f5f5" stroke="black" points="2281.38,-590.75 2108.62,-590.75 2108.62,-554.75 2281.38,-554.75 2281.38,-590.75"/>
<text text-anchor="middle" x="2195" y="-575.25" font-family="Arial" font-size="10.00">_create_prompt</text>
<text text-anchor="middle" x="2195" y="-563.25" font-family="Arial" font-size="10.00">Creates the prompt for the AI agent.</text>
</g>
<!-- _parse_response -->
<g id="node8" class="node">
<title>_parse_response</title>
<polygon fill="#f5f5f5" stroke="black" points="2524.75,-590.75 2339.25,-590.75 2339.25,-554.75 2524.75,-554.75 2524.75,-590.75"/>
<text text-anchor="middle" x="2432" y="-575.25" font-family="Arial" font-size="10.00">_parse_response</text>
<text text-anchor="middle" x="2432" y="-563.25" font-family="Arial" font-size="10.00">Parses the AI agent&#39;s JSON response.</text>
</g>
<!-- analyze_file -->
<g id="node9" class="node">
<title>analyze_file</title>
<ellipse fill="#d9ead3" stroke="black" cx="2683" cy="-572.75" rx="96.17" ry="96.17"/>
<ellipse fill="none" stroke="black" cx="2683" cy="-572.75" rx="100.17" ry="100.17"/>
<text text-anchor="middle" x="2683" y="-575.25" font-family="Arial" font-size="10.00">analyze_file</text>
<text text-anchor="middle" x="2683" y="-563.25" font-family="Arial" font-size="10.00">Analyzes a single code file.</text>
</g>
<!-- _analyze_code -->
<g id="node10" class="node">
<title>_analyze_code</title>
<polygon fill="#f5f5f5" stroke="black" points="3048.62,-590.75 2841.38,-590.75 2841.38,-554.75 3048.62,-554.75 3048.62,-590.75"/>
<text text-anchor="middle" x="2945" y="-575.25" font-family="Arial" font-size="10.00">_analyze_code</text>
<text text-anchor="middle" x="2945" y="-563.25" font-family="Arial" font-size="10.00">Sends the code to the AI agent for analysis.</text>
</g>
<!-- _analyze_large_file -->
<g id="node11" class="node">
<title>_analyze_large_file</title>
<polygon fill="#f5f5f5" stroke="black" points="3363,-590.75 3107,-590.75 3107,-554.75 3363,-554.75 3363,-590.75"/>
<text text-anchor="middle" x="3235" y="-575.25" font-family="Arial" font-size="10.00">_analyze_large_file</text>
<text text-anchor="middle" x="3235" y="-563.25" font-family="Arial" font-size="10.00">Analyzes a large file by chunking it into smaller pieces.</text>
</g>
<!-- add_file_analysis -->
<g id="node12" class="node">
<title>add_file_analysis</title>
<ellipse fill="#d9ead3" stroke="black" cx="3602" cy="-572.75" rx="177.31" ry="177.31"/>
<ellipse fill="none" stroke="black" cx="3602" cy="-572.75" rx="181.31" ry="181.31"/>
<text text-anchor="middle" x="3602" y="-575.25" font-family="Arial" font-size="10.00">add_file_analysis</text>
<text text-anchor="middle" x="3602" y="-563.25" font-family="Arial" font-size="10.00">Add a file&#39;s analysis results to the relationship builder.</text>
</g>
<!-- get_function_details -->
<g id="node13" class="node">
<title>get_function_details</title>
<polygon fill="#f5f5f5" stroke="black" points="4004.5,-590.75 3841.5,-590.75 3841.5,-554.75 4004.5,-554.75 4004.5,-590.75"/>
<text text-anchor="middle" x="3923" y="-575.25" font-family="Arial" font-size="10.00">get_function_details</text>
<text text-anchor="middle" x="3923" y="-563.25" font-family="Arial" font-size="10.00">Get details for a specific function.</text>
</g>
<!-- get_functions_by_file -->
<g id="node14" class="node">
<title>get_functions_by_file</title>
<polygon fill="#f5f5f5" stroke="black" points="4259,-590.75 4063,-590.75 4063,-554.75 4259,-554.75 4259,-590.75"/>
<text text-anchor="middle" x="4161" y="-575.25" font-family="Arial" font-size="10.00">get_functions_by_file</text>
<text text-anchor="middle" x="4161" y="-563.25" font-family="Arial" font-size="10.00">Get all functions defined in a specific file.</text>
</g>
<!-- get_function_callers -->
<g id="node15" class="node">
<title>get_function_callers</title>
<polygon fill="#f5f5f5" stroke="black" points="4527.12,-590.75 4316.88,-590.75 4316.88,-554.75 4527.12,-554.75 4527.12,-590.75"/>
<text text-anchor="middle" x="4422" y="-575.25" font-family="Arial" font-size="10.00">get_function_callers</text>
<text text-anchor="middle" x="4422" y="-563.25" font-family="Arial" font-size="10.00">Get all functions that call a specific function.</text>
</g>
<!-- get_function_callees -->
<g id="node16" class="node">
<title>get_function_callees</title>
<polygon fill="#f5f5f5" stroke="black" points="4827.38,-52 4612.62,-52 4612.62,-16 4827.38,-16 4827.38,-52"/>
<text text-anchor="middle" x="4720" y="-36.5" font-family="Arial" font-size="10.00">get_function_callees</text>
<text text-anchor="middle" x="4720" y="-24.5" font-family="Arial" font-size="10.00">Get all functions called by a specific function.</text>
</g>
<!-- get_entry_point_paths -->
<g id="node17" class="node">
<title>get_entry_point_paths</title>
<polygon fill="#f5f5f5" stroke="black" points="4851,-268 4589,-268 4589,-232 4851,-232 4851,-268"/>
<text text-anchor="middle" x="4720" y="-252.5" font-family="Arial" font-size="10.00">get_entry_point_paths</text>
<text text-anchor="middle" x="4720" y="-240.5" font-family="Arial" font-size="10.00">Get the major execution paths starting from entry points.</text>
</g>
<!-- _trace_path_from -->
<g id="node18" class="node">
<title>_trace_path_from</title>
<polygon fill="#f5f5f5" stroke="black" points="4827,-160 4613,-160 4613,-124 4827,-124 4827,-160"/>
<text text-anchor="middle" x="4720" y="-144.5" font-family="Arial" font-size="10.00">_trace_path_from</text>
<text text-anchor="middle" x="4720" y="-132.5" font-family="Arial" font-size="10.00">Trace a path starting from a specific function.</text>
</g>
<!-- get_entry_point_paths&#45;&gt;_trace_path_from -->
<g id="edge2" class="edge">
<title>get_entry_point_paths&#45;&gt;_trace_path_from</title>
<path fill="none" stroke="black" d="M4684.33,-231.68C4684.33,-231.68 4684.33,-171.92 4684.33,-171.92"/>
<polygon fill="black" stroke="black" points="4687.83,-171.92 4684.33,-161.92 4680.83,-171.92 4687.83,-171.92"/>
</g>
<!-- _trace_path_from&#45;&gt;get_function_callees -->
<g id="edge3" class="edge">
<title>_trace_path_from&#45;&gt;get_function_callees</title>
<path fill="none" stroke="black" d="M4684.33,-123.68C4684.33,-123.68 4684.33,-63.92 4684.33,-63.92"/>
<polygon fill="black" stroke="black" points="4687.83,-63.92 4684.33,-53.92 4680.83,-63.92 4687.83,-63.92"/>
</g>
<!-- _trace_path_from&#45;&gt;_trace_path_from -->
<g id="edge4" class="edge">
<title>_trace_path_from&#45;&gt;_trace_path_from</title>
<path fill="none" stroke="black" d="M4755.67,-160.28C4755.67,-175.95 4755.67,-196 4755.67,-196 4755.67,-196 4839.19,-196 4839.19,-196 4839.19,-196 4839.19,-88 4839.19,-88 4839.19,-88 4755.67,-88 4755.67,-88 4755.67,-88 4755.67,-112.2 4755.67,-112.2"/>
<polygon fill="black" stroke="black" points="4752.17,-112.2 4755.67,-122.2 4759.17,-112.2 4752.17,-112.2"/>
</g>
<!-- get_summary -->
<g id="node19" class="node">
<title>get_summary</title>
<ellipse fill="#d9ead3" stroke="black" cx="4720" cy="-572.75" rx="131.17" ry="131.17"/>
<ellipse fill="none" stroke="black" cx="4720" cy="-572.75" rx="135.17" ry="135.17"/>
<text text-anchor="middle" x="4720" y="-575.25" font-family="Arial" font-size="10.00">get_summary</text>
<text text-anchor="middle" x="4720" y="-563.25" font-family="Arial" font-size="10.00">Get a summary of the analysis results.</text>
</g>
<!-- get_summary&#45;&gt;get_entry_point_paths -->
<g id="edge5" class="edge">
<title>get_summary&#45;&gt;get_entry_point_paths</title>
<path fill="none" stroke="black" d="M4720,-437.28C4720,-437.28 4720,-279.88 4720,-279.88"/>
<polygon fill="black" stroke="black" points="4723.5,-279.88 4720,-269.88 4716.5,-279.88 4723.5,-279.88"/>
</g>
<!-- VisualizationGenerator.__init__ -->
<g id="node20" class="node">
<title>VisualizationGenerator.__init__</title>
<ellipse fill="#d9ead3" stroke="black" cx="5146" cy="-572.75" rx="228.75" ry="228.75"/>
<ellipse fill="none" stroke="black" cx="5146" cy="-572.75" rx="232.75" ry="232.75"/>
<text text-anchor="middle" x="5146" y="-575.25" font-family="Arial" font-size="10.00">VisualizationGenerator.__init__</text>
<text text-anchor="middle" x="5146" y="-563.25" font-family="Arial" font-size="10.00">Initializes the visualization generator with output directory and formats.</text>
</g>
<!-- VisualizationGenerator._check_graphviz -->
<g id="node21" class="node">
<title>VisualizationGenerator._check_graphviz</title>
<polygon fill="#f5f5f5" stroke="black" points="5738.88,-590.75 5437.12,-590.75 5437.12,-554.75 5738.88,-554.75 5738.88,-590.75"/>
<text text-anchor="middle" x="5588" y="-575.25" font-family="Arial" font-size="10.00">VisualizationGenerator._check_graphviz</text>
<text text-anchor="middle" x="5588" y="-563.25" font-family="Arial" font-size="10.00">Checks if Graphviz is installed by looking for the &#39;dot&#39; executable.</text>
</g>
<!-- VisualizationGenerator.generate_function_diagram -->
<g id="node22" class="node">
<title>VisualizationGenerator.generate_function_diagram</title>
<ellipse fill="#d9ead3" stroke="black" cx="5994" cy="-572.75" rx="192.69" ry="192.69"/>
<ellipse fill="none" stroke="black" cx="5994" cy="-572.75" rx="196.69" ry="196.69"/>
<text text-anchor="middle" x="5994" y="-575.25" font-family="Arial" font-size="10.00">VisualizationGenerator.generate_function_diagram</text>
<text text-anchor="middle" x="5994" y="-563.25" font-family="Arial" font-size="10.00">Generates function call diagrams using data from a builder.</text>
</g>
<!-- VisualizationGenerator.generate_dependency_diagram -->
<g id="node23" class="node">
<title>VisualizationGenerator.generate_dependency_diagram</title>
<ellipse fill="#d9ead3" stroke="black" cx="6459" cy="-572.75" rx="206.48" ry="206.48"/>
<ellipse fill="none" stroke="black" cx="6459" cy="-572.75" rx="210.48" ry="210.48"/>
<text text-anchor="middle" x="6459" y="-575.25" font-family="Arial" font-size="10.00">VisualizationGenerator.generate_dependency_diagram</text>
<text text-anchor="middle" x="6459" y="-563.25" font-family="Arial" font-size="10.00">Generates module/file dependency diagrams using builder data.</text>
</g>
<!-- VisualizationGenerator.generate_execution_path_diagram -->
<g id="node24" class="node">
<title>VisualizationGenerator.generate_execution_path_diagram</title>
<ellipse fill="#d9ead3" stroke="black" cx="6923" cy="-572.75" rx="191.1" ry="191.1"/>
<ellipse fill="none" stroke="black" cx="6923" cy="-572.75" rx="195.1" ry="195.1"/>
<text text-anchor="middle" x="6923" y="-575.25" font-family="Arial" font-size="10.00">VisualizationGenerator.generate_execution_path_diagram</text>
<text text-anchor="middle" x="6923" y="-563.25" font-family="Arial" font-size="10.00">Generates execution path diagrams based on entry points.</text>
</g>
<!-- VisualizationGenerator._generate_mermaid -->
<g id="node25" class="node">
<title>VisualizationGenerator._generate_mermaid</title>
<polygon fill="#f5f5f5" stroke="black" points="7425.62,-590.75 7176.38,-590.75 7176.38,-554.75 7425.62,-554.75 7425.62,-590.75"/>
<text text-anchor="middle" x="7301" y="-575.25" font-family="Arial" font-size="10.00">VisualizationGenerator._generate_mermaid</text>
<text text-anchor="middle" x="7301" y="-563.25" font-family="Arial" font-size="10.00">Generates Mermaid syntax for function call diagrams.</text>
</g>
<!-- VisualizationGenerator._generate_dependency_mermaid -->
<g id="node26" class="node">
<title>VisualizationGenerator._generate_dependency_mermaid</title>
<polygon fill="#f5f5f5" stroke="black" points="7748.5,-590.75 7483.5,-590.75 7483.5,-554.75 7748.5,-554.75 7748.5,-590.75"/>
<text text-anchor="middle" x="7616" y="-575.25" font-family="Arial" font-size="10.00">VisualizationGenerator._generate_dependency_mermaid</text>
<text text-anchor="middle" x="7616" y="-563.25" font-family="Arial" font-size="10.00">Generates Mermaid syntax for file dependency diagrams.</text>
</g>
<!-- VisualizationGenerator._generate_execution_path_mermaid -->
<g id="node27" class="node">
<title>VisualizationGenerator._generate_execution_path_mermaid</title>
<polygon fill="#f5f5f5" stroke="black" points="8081,-590.75 7807,-590.75 7807,-554.75 8081,-554.75 8081,-590.75"/>
<text text-anchor="middle" x="7944" y="-575.25" font-family="Arial" font-size="10.00">VisualizationGenerator._generate_execution_path_mermaid</text>
<text text-anchor="middle" x="7944" y="-563.25" font-family="Arial" font-size="10.00">Generates Mermaid syntax for execution path diagrams.</text>
</g>
<!-- VisualizationGenerator.export_data -->
<g id="node28" class="node">
<title>VisualizationGenerator.export_data</title>
<ellipse fill="#d9ead3" stroke="black" cx="8269" cy="-572.75" rx="126.4" ry="126.4"/>
<ellipse fill="none" stroke="black" cx="8269" cy="-572.75" rx="130.4" ry="130.4"/>
<text text-anchor="middle" x="8269" y="-575.25" font-family="Arial" font-size="10.00">VisualizationGenerator.export_data</text>
<text text-anchor="middle" x="8269" y="-563.25" font-family="Arial" font-size="10.00">Exports analysis data to a JSON file.</text>
</g>
<!-- VisualizationGenerator._sanitize_name -->
<g id="node29" class="node">
<title>VisualizationGenerator._sanitize_name</title>
<polygon fill="#f5f5f5" stroke="black" points="8694.25,-590.75 8457.75,-590.75 8457.75,-554.75 8694.25,-554.75 8694.25,-590.75"/>
<text text-anchor="middle" x="8576" y="-575.25" font-family="Arial" font-size="10.00">VisualizationGenerator._sanitize_name</text>
<text text-anchor="middle" x="8576" y="-563.25" font-family="Arial" font-size="10.00">Sanitizes names for use in Graphviz and Mermaid.</text>
</g>
<!-- VisualizationGenerator._wrap_text -->
<g id="node30" class="node">
<title>VisualizationGenerator._wrap_text</title>
<polygon fill="#f5f5f5" stroke="black" points="9035.5,-590.75 8752.5,-590.75 8752.5,-554.75 9035.5,-554.75 9035.5,-590.75"/>
<text text-anchor="middle" x="8894" y="-575.25" font-family="Arial" font-size="10.00">VisualizationGenerator._wrap_text</text>
<text text-anchor="middle" x="8894" y="-563.25" font-family="Arial" font-size="10.00">Wraps text for Mermaid diagrams to fit within specified width.</text>
</g>
</g>
</svg>
