<?xml version="1.0" encoding="UTF-8" standalone="no"?>
<!DOCTYPE svg PUBLIC "-//W3C//DTD SVG 1.1//EN"
 "http://www.w3.org/Graphics/SVG/1.1/DTD/svg11.dtd">
<!-- Generated by graphviz version 12.2.1 (20241206.2353)
 -->
<!-- Title: execution_paths Pages: 1 -->
<svg width="1661pt" height="5782pt"
 viewBox="0.00 0.00 1661.10 5782.00" xmlns="http://www.w3.org/2000/svg" xmlns:xlink="http://www.w3.org/1999/xlink">
<g id="graph0" class="graph" transform="scale(1 1) rotate(0) translate(4 5778)">
<title>execution_paths</title>
<polygon fill="white" stroke="none" points="-4,4 -4,-5778 1657.1,-5778 1657.1,4 -4,4"/>
<g id="clust1" class="cluster">
<title>cluster_path_0</title>
<polygon fill="#e8f4f8" stroke="blue" points="55.73,-8 55.73,-536 561.62,-536 561.62,-8 55.73,-8"/>
<text text-anchor="middle" x="308.68" y="-520.6" font-family="Arial" font-size="12.00">Path from __init__</text>
</g>
<g id="clust2" class="cluster">
<title>cluster_path_1</title>
<polygon fill="#e8f4f8" stroke="blue" points="126.26,-544 126.26,-931 978.85,-931 978.85,-544 126.26,-544"/>
<text text-anchor="middle" x="552.56" y="-915.6" font-family="Arial" font-size="12.00">Path from main</text>
</g>
<g id="clust3" class="cluster">
<title>cluster_path_2</title>
<polygon fill="#e8f4f8" stroke="blue" points="8,-939 8,-1563 609.35,-1563 609.35,-939 8,-939"/>
<text text-anchor="middle" x="308.68" y="-1547.6" font-family="Arial" font-size="12.00">Path from VisualizationGenerator.__init__</text>
</g>
<g id="clust4" class="cluster">
<title>cluster_path_3</title>
<polygon fill="#e8f4f8" stroke="blue" points="178.77,-1571 178.77,-1853 438.59,-1853 438.59,-1571 178.77,-1571"/>
<text text-anchor="middle" x="308.68" y="-1837.6" font-family="Arial" font-size="12.00">Path from analyze_file</text>
</g>
<g id="clust5" class="cluster">
<title>cluster_path_4</title>
<polygon fill="#e8f4f8" stroke="blue" points="76.41,-1861 76.41,-2348 540.94,-2348 540.94,-1861 76.41,-1861"/>
<text text-anchor="middle" x="308.68" y="-2332.6" font-family="Arial" font-size="12.00">Path from add_file_analysis</text>
</g>
<g id="clust6" class="cluster">
<title>cluster_path_5</title>
<polygon fill="#e8f4f8" stroke="blue" points="91.79,-2356 91.79,-2812 525.56,-2812 525.56,-2356 91.79,-2356"/>
<text text-anchor="middle" x="308.68" y="-2796.6" font-family="Arial" font-size="12.00">Path from get_file_stats</text>
</g>
<g id="clust7" class="cluster">
<title>cluster_path_6</title>
<polygon fill="#e8f4f8" stroke="blue" points="136.87,-2820 136.87,-3186 1645.1,-3186 1645.1,-2820 136.87,-2820"/>
<text text-anchor="middle" x="890.99" y="-3170.6" font-family="Arial" font-size="12.00">Path from get_summary</text>
</g>
<g id="clust8" class="cluster">
<title>cluster_path_7</title>
<polygon fill="#e8f4f8" stroke="blue" points="55.73,-3194 55.73,-3722 561.62,-3722 561.62,-3194 55.73,-3194"/>
<text text-anchor="middle" x="308.68" y="-3706.6" font-family="Arial" font-size="12.00">Path from VisualizationGenerator.generate_function_diagram</text>
</g>
<g id="clust9" class="cluster">
<title>cluster_path_8</title>
<polygon fill="#e8f4f8" stroke="blue" points="143.23,-3730 143.23,-4083 474.12,-4083 474.12,-3730 143.23,-3730"/>
<text text-anchor="middle" x="308.68" y="-4067.6" font-family="Arial" font-size="12.00">Path from VisualizationGenerator.export_data</text>
</g>
<g id="clust10" class="cluster">
<title>cluster_path_9</title>
<polygon fill="#e8f4f8" stroke="blue" points="28.68,-4091 28.68,-4673 588.67,-4673 588.67,-4091 28.68,-4091"/>
<text text-anchor="middle" x="308.68" y="-4657.6" font-family="Arial" font-size="12.00">Path from explore</text>
</g>
<g id="clust11" class="cluster">
<title>cluster_path_10</title>
<polygon fill="#e8f4f8" stroke="blue" points="39.29,-4681 39.29,-5242 578.06,-5242 578.06,-4681 39.29,-4681"/>
<text text-anchor="middle" x="308.68" y="-5226.6" font-family="Arial" font-size="12.00">Path from VisualizationGenerator.generate_dependency_diagram</text>
</g>
<g id="clust12" class="cluster">
<title>cluster_path_11</title>
<polygon fill="#e8f4f8" stroke="blue" points="62.09,-5250 62.09,-5766 555.26,-5766 555.26,-5250 62.09,-5250"/>
<text text-anchor="middle" x="308.68" y="-5750.6" font-family="Arial" font-size="12.00">Path from VisualizationGenerator.generate_execution_path_diagram</text>
</g>
<!-- __init__ -->
<g id="node1" class="node">
<title>__init__</title>
<ellipse fill="none" stroke="black" cx="308.68" cy="-261" rx="240.95" ry="240.95"/>
<ellipse fill="none" stroke="black" cx="308.68" cy="-261" rx="244.95" ry="244.95"/>
<text text-anchor="middle" x="308.68" y="-264.2" font-family="Times,serif" font-size="14.00">__init__</text>
<text text-anchor="middle" x="308.68" y="-247.7" font-family="Times,serif" font-size="14.00">Initializes the DirectoryExplorer with configurable settings.</text>
</g>
<!-- main -->
<g id="node2" class="node">
<title>main</title>
<ellipse fill="none" stroke="black" cx="308.68" cy="-726" rx="170.41" ry="170.41"/>
<ellipse fill="none" stroke="black" cx="308.68" cy="-726" rx="174.41" ry="174.41"/>
<text text-anchor="middle" x="308.68" y="-729.2" font-family="Times,serif" font-size="14.00">main</text>
<text text-anchor="middle" x="308.68" y="-712.7" font-family="Times,serif" font-size="14.00">Main entry point for the CLI application.</text>
</g>
<!-- analyze_project -->
<g id="node3" class="node">
<title>analyze_project</title>
<polygon fill="none" stroke="black" points="970.85,-746.5 675.1,-746.5 675.1,-705.5 970.85,-705.5 970.85,-746.5"/>
<text text-anchor="middle" x="822.98" y="-729.2" font-family="Times,serif" font-size="14.00">analyze_project</text>
<text text-anchor="middle" x="822.98" y="-712.7" font-family="Times,serif" font-size="14.00">Analyze a code project and generate visualizations.</text>
</g>
<!-- main&#45;&gt;analyze_project -->
<g id="edge1" class="edge">
<title>main&#45;&gt;analyze_project</title>
<path fill="none" stroke="blue" stroke-width="2" d="M483.48,-726C541.34,-726 605.48,-726 662.23,-726"/>
<polygon fill="blue" stroke="blue" stroke-width="2" points="661.95,-729.5 671.95,-726 661.95,-722.5 661.95,-729.5"/>
</g>
<!-- VisualizationGenerator.__init__ -->
<g id="node4" class="node">
<title>VisualizationGenerator.__init__</title>
<ellipse fill="none" stroke="black" cx="308.68" cy="-1240" rx="288.68" ry="288.68"/>
<ellipse fill="none" stroke="black" cx="308.68" cy="-1240" rx="292.68" ry="292.68"/>
<text text-anchor="middle" x="308.68" y="-1243.2" font-family="Times,serif" font-size="14.00">VisualizationGenerator.__init__</text>
<text text-anchor="middle" x="308.68" y="-1226.7" font-family="Times,serif" font-size="14.00">Initializes the visualization generator with output directory and formats.</text>
</g>
<!-- analyze_file -->
<g id="node5" class="node">
<title>analyze_file</title>
<ellipse fill="none" stroke="black" cx="308.68" cy="-1701" rx="117.91" ry="117.91"/>
<ellipse fill="none" stroke="black" cx="308.68" cy="-1701" rx="121.91" ry="121.91"/>
<text text-anchor="middle" x="308.68" y="-1704.2" font-family="Times,serif" font-size="14.00">analyze_file</text>
<text text-anchor="middle" x="308.68" y="-1687.7" font-family="Times,serif" font-size="14.00">Analyzes a single code file.</text>
</g>
<!-- add_file_analysis -->
<g id="node6" class="node">
<title>add_file_analysis</title>
<ellipse fill="none" stroke="black" cx="308.68" cy="-2093" rx="220.26" ry="220.26"/>
<ellipse fill="none" stroke="black" cx="308.68" cy="-2093" rx="224.26" ry="224.26"/>
<text text-anchor="middle" x="308.68" y="-2096.2" font-family="Times,serif" font-size="14.00">add_file_analysis</text>
<text text-anchor="middle" x="308.68" y="-2079.7" font-family="Times,serif" font-size="14.00">Add a file&#39;s analysis results to the relationship builder.</text>
</g>
<!-- get_file_stats -->
<g id="node7" class="node">
<title>get_file_stats</title>
<ellipse fill="none" stroke="black" cx="308.68" cy="-2573" rx="204.88" ry="204.88"/>
<ellipse fill="none" stroke="black" cx="308.68" cy="-2573" rx="208.88" ry="208.88"/>
<text text-anchor="middle" x="308.68" y="-2576.2" font-family="Times,serif" font-size="14.00">get_file_stats</text>
<text text-anchor="middle" x="308.68" y="-2559.7" font-family="Times,serif" font-size="14.00">Generates statistics about the identified code files.</text>
</g>
<!-- get_summary -->
<g id="node8" class="node">
<title>get_summary</title>
<ellipse fill="none" stroke="black" cx="308.68" cy="-2992" rx="159.81" ry="159.81"/>
<ellipse fill="none" stroke="black" cx="308.68" cy="-2992" rx="163.81" ry="163.81"/>
<text text-anchor="middle" x="308.68" y="-2995.2" font-family="Times,serif" font-size="14.00">get_summary</text>
<text text-anchor="middle" x="308.68" y="-2978.7" font-family="Times,serif" font-size="14.00">Get a summary of the analysis results.</text>
</g>
<!-- get_entry_point_paths -->
<g id="node9" class="node">
<title>get_entry_point_paths</title>
<polygon fill="none" stroke="black" points="986.6,-3012.5 659.35,-3012.5 659.35,-2971.5 986.6,-2971.5 986.6,-3012.5"/>
<text text-anchor="middle" x="822.98" y="-2995.2" font-family="Times,serif" font-size="14.00">get_entry_point_paths</text>
<text text-anchor="middle" x="822.98" y="-2978.7" font-family="Times,serif" font-size="14.00">Get the major execution paths starting from entry points.</text>
</g>
<!-- get_summary&#45;&gt;get_entry_point_paths -->
<g id="edge2" class="edge">
<title>get_summary&#45;&gt;get_entry_point_paths</title>
<path fill="none" stroke="blue" stroke-width="2" d="M472.83,-2992C527.99,-2992 589.81,-2992 645.93,-2992"/>
<polygon fill="blue" stroke="blue" stroke-width="2" points="645.91,-2995.5 655.91,-2992 645.91,-2988.5 645.91,-2995.5"/>
</g>
<!-- _trace_path_from -->
<g id="node10" class="node">
<title>_trace_path_from</title>
<polygon fill="none" stroke="black" points="1311.1,-3012.5 1044.6,-3012.5 1044.6,-2971.5 1311.1,-2971.5 1311.1,-3012.5"/>
<text text-anchor="middle" x="1177.85" y="-2995.2" font-family="Times,serif" font-size="14.00">_trace_path_from</text>
<text text-anchor="middle" x="1177.85" y="-2978.7" font-family="Times,serif" font-size="14.00">Trace a path starting from a specific function.</text>
</g>
<!-- get_entry_point_paths&#45;&gt;_trace_path_from -->
<g id="edge3" class="edge">
<title>get_entry_point_paths&#45;&gt;_trace_path_from</title>
<path fill="none" stroke="blue" stroke-width="2" d="M986.99,-2992C1001.79,-2992 1016.72,-2992 1031.36,-2992"/>
<polygon fill="blue" stroke="blue" stroke-width="2" points="1031.11,-2995.5 1041.11,-2992 1031.11,-2988.5 1031.11,-2995.5"/>
</g>
<!-- get_function_callees -->
<g id="node11" class="node">
<title>get_function_callees</title>
<polygon fill="none" stroke="black" points="1637.1,-3012.5 1369.1,-3012.5 1369.1,-2971.5 1637.1,-2971.5 1637.1,-3012.5"/>
<text text-anchor="middle" x="1503.1" y="-2995.2" font-family="Times,serif" font-size="14.00">get_function_callees</text>
<text text-anchor="middle" x="1503.1" y="-2978.7" font-family="Times,serif" font-size="14.00">Get all functions called by a specific function.</text>
</g>
<!-- _trace_path_from&#45;&gt;get_function_callees -->
<g id="edge4" class="edge">
<title>_trace_path_from&#45;&gt;get_function_callees</title>
<path fill="none" stroke="blue" stroke-width="2" d="M1311.26,-2992C1325.96,-2992 1340.99,-2992 1355.85,-2992"/>
<polygon fill="blue" stroke="blue" stroke-width="2" points="1355.82,-2995.5 1365.82,-2992 1355.82,-2988.5 1355.82,-2995.5"/>
</g>
<!-- VisualizationGenerator.generate_function_diagram -->
<g id="node12" class="node">
<title>VisualizationGenerator.generate_function_diagram</title>
<ellipse fill="none" stroke="black" cx="308.68" cy="-3447" rx="240.95" ry="240.95"/>
<ellipse fill="none" stroke="black" cx="308.68" cy="-3447" rx="244.95" ry="244.95"/>
<text text-anchor="middle" x="308.68" y="-3450.2" font-family="Times,serif" font-size="14.00">VisualizationGenerator.generate_function_diagram</text>
<text text-anchor="middle" x="308.68" y="-3433.7" font-family="Times,serif" font-size="14.00">Generates function call diagrams using data from a builder.</text>
</g>
<!-- VisualizationGenerator.export_data -->
<g id="node13" class="node">
<title>VisualizationGenerator.export_data</title>
<ellipse fill="none" stroke="black" cx="308.68" cy="-3895" rx="153.44" ry="153.44"/>
<ellipse fill="none" stroke="black" cx="308.68" cy="-3895" rx="157.44" ry="157.44"/>
<text text-anchor="middle" x="308.68" y="-3898.2" font-family="Times,serif" font-size="14.00">VisualizationGenerator.export_data</text>
<text text-anchor="middle" x="308.68" y="-3881.7" font-family="Times,serif" font-size="14.00">Exports analysis data to a JSON file.</text>
</g>
<!-- explore -->
<g id="node14" class="node">
<title>explore</title>
<ellipse fill="none" stroke="black" cx="308.68" cy="-4371" rx="267.99" ry="267.99"/>
<ellipse fill="none" stroke="black" cx="308.68" cy="-4371" rx="271.99" ry="271.99"/>
<text text-anchor="middle" x="308.68" y="-4374.2" font-family="Times,serif" font-size="14.00">explore</text>
<text text-anchor="middle" x="308.68" y="-4357.7" font-family="Times,serif" font-size="14.00">Recursively explores the directory structure starting from root_dir.</text>
</g>
<!-- VisualizationGenerator.generate_dependency_diagram -->
<g id="node15" class="node">
<title>VisualizationGenerator.generate_dependency_diagram</title>
<ellipse fill="none" stroke="black" cx="308.68" cy="-4950" rx="257.39" ry="257.39"/>
<ellipse fill="none" stroke="black" cx="308.68" cy="-4950" rx="261.39" ry="261.39"/>
<text text-anchor="middle" x="308.68" y="-4953.2" font-family="Times,serif" font-size="14.00">VisualizationGenerator.generate_dependency_diagram</text>
<text text-anchor="middle" x="308.68" y="-4936.7" font-family="Times,serif" font-size="14.00">Generates module/file dependency diagrams using builder data.</text>
</g>
<!-- VisualizationGenerator.generate_execution_path_diagram -->
<g id="node16" class="node">
<title>VisualizationGenerator.generate_execution_path_diagram</title>
<ellipse fill="none" stroke="black" cx="308.68" cy="-5497" rx="234.58" ry="234.58"/>
<ellipse fill="none" stroke="black" cx="308.68" cy="-5497" rx="238.58" ry="238.58"/>
<text text-anchor="middle" x="308.68" y="-5500.2" font-family="Times,serif" font-size="14.00">VisualizationGenerator.generate_execution_path_diagram</text>
<text text-anchor="middle" x="308.68" y="-5483.7" font-family="Times,serif" font-size="14.00">Generates execution path diagrams based on entry points.</text>
</g>
</g>
</svg>
